<svg xmlns="http://www.w3.org/2000/svg" viewBox="0 0 100 100">
  <rect width="100" height="100" rx="20" fill="#2563eb" />
  <path d="M35 30 C 25 30, 25 35, 25 40 L 25 45 C 25 50, 15 50, 15 50 C 15 50, 25 50, 25 55 L 25 60 C 25 65, 25 70, 35 70" stroke="white" stroke-width="8" fill="none" stroke-linecap="round" stroke-linejoin="round"/>
  <path d="M65 30 C 75 30, 75 35, 75 40 L 75 45 C 75 50, 85 50, 85 50 C 85 50, 75 50, 75 55 L 75 60 C 75 65, 75 70, 65 70" stroke="white" stroke-width="8" fill="none" stroke-linecap="round" stroke-linejoin="round"/>
</svg>
